PathFileType	4	(X/Y/Z)	D:\TRACE\spotREDO_2-26-24\spot_justArm_Motion_2_1-platform.trc
DataRate	CameraRate	NumFrames	NumMarkers	Units	OrigDataRate	OrigDataStartFrame	OrigNumFrames
100.00	100.00	      73	5	mm	100.00	2626	      7000
Frame#	Time	Left_Front			Right_Front			Left_Aft			Right_Aft			Post			
		X1	Y1	Z1	X2	Y2	Z2	X3	Y3	Z3	X4	Y4	Z4	X5	Y5	Z5	

2626	26.250	-662.14563	52.12554	-558.46466	752.84351	53.23429	-474.09958	-732.30548	-54.12120	656.15430	836.84912	-48.03584	660.01581	46.77422	715.13031	-904.02307	
2627	26.260	-662.73669	51.93964	-558.42340	752.03711	53.12671	-474.25287	-733.34045	-53.51934	656.31854	835.95477	-47.69820	660.00555	46.24797	714.74481	-904.24554	
2628	26.270	-663.78204	51.63735	-558.59894	751.31140	52.98874	-474.35303	-734.42822	-53.51172	656.20197	835.34619	-47.58234	659.86041	45.38179	714.42426	-904.50537	
2629	26.280	-664.38098	51.51458	-558.65601	750.36096	52.63401	-474.40921	-734.84186	-53.47503	656.21991	834.43011	-47.25203	659.91107	44.34087	713.95264	-904.90424	
2630	26.290	-665.21387	51.00916	-558.78552	749.57239	52.38165	-474.56738	-735.59973	-52.89928	656.27747	833.61194	-46.93198	659.87500	43.73103	713.61157	-905.08032	
2631	26.300	-666.01898	50.62694	-558.86646	748.79651	52.10826	-474.64420	-736.48566	-52.87992	656.02130	832.75531	-46.64248	659.72192	42.98901	713.09637	-905.38873	
2632	26.310	-666.72638	50.28959	-558.92139	747.91016	51.80080	-474.70663	-737.37463	-52.29941	655.97449	831.85504	-46.32047	659.41675	41.83028	712.29865	-906.13910	
2633	26.320	-667.87311	49.71003	-559.03052	747.17480	51.47683	-474.82358	-738.36963	-51.02339	655.67767	830.97198	-45.88836	659.41406	41.05032	711.73096	-906.63580	
2634	26.330	-668.38092	49.44688	-559.16858	745.92548	51.05980	-475.19925	-739.21765	-50.98787	655.53290	830.25140	-45.41158	659.48163	40.18235	711.01672	-907.27649	
2635	26.340	-669.48492	49.03036	-559.50122	745.21069	50.72631	-475.33463	-740.27826	-50.49052	655.46863	829.30701	-45.00607	659.54010	39.29505	710.32800	-908.28180	
2636	26.350	-670.46454	48.50502	-559.61682	744.43756	50.41840	-475.49545	-741.17041	-50.10377	655.55389	828.29437	-44.44672	659.52167	38.54224	709.50720	-909.14050	
2637	26.360	-671.32306	48.09444	-559.87018	743.22839	49.75105	-475.65909	-741.95831	-49.65531	655.58801	827.22351	-43.72032	659.39673	37.55286	708.74377	-910.04443	
2638	26.370	-672.35480	47.52986	-560.07654	742.41290	49.44753	-475.74976	-742.97717	-48.98124	655.36847	826.43237	-43.17267	659.13324	36.74114	707.75616	-910.77209	
2639	26.380	-673.22729	47.08063	-560.22406	741.65704	48.91961	-475.97171	-743.85974	-48.58345	655.27728	825.69812	-42.58560	658.91718	35.76185	707.07526	-911.87561	
2640	26.390	-674.04419	46.19254	-560.46771	740.59558	48.35090	-476.09656	-744.81635	-48.01277	655.07275	824.59729	-42.02375	659.05383	34.96860	705.95404	-912.52795	
2641	26.400	-675.04205	45.60562	-560.60339	739.71008	47.77051	-476.36209	-745.63068	-47.27610	654.95117	823.57416	-41.34157	659.12561	33.72022	705.10748	-913.56409	
2642	26.410	-676.17383	44.98174	-560.94092	738.73187	47.30466	-476.61746	-746.61334	-46.64375	654.80084	822.68225	-40.58577	658.83551	33.13330	704.11700	-914.19250	
2643	26.420	-676.82556	44.45113	-561.11774	737.74268	46.62835	-476.89893	-747.65198	-45.84139	654.78406	821.66956	-40.04011	658.85748	31.81135	702.98029	-915.04974	
2644	26.430	-678.17029	43.80407	-561.35376	736.53583	46.20446	-477.14468	-748.74323	-45.22948	654.54950	820.55396	-39.21667	658.63055	30.59978	701.72662	-915.79095	
2645	26.440	-678.95563	42.90796	-561.72058	735.58142	45.62434	-477.18524	-749.76349	-44.53469	654.55389	819.57825	-38.44370	658.19379	29.79114	700.85126	-916.86786	
2646	26.450	-680.17731	42.08583	-561.74200	734.57428	44.86775	-477.58206	-750.79211	-43.75126	654.24567	818.52100	-37.49776	658.18414	28.78814	699.42334	-917.85767	
2647	26.460	-680.85883	41.30801	-562.06799	733.57709	44.28421	-477.79272	-751.65930	-43.03914	654.03784	817.68848	-36.97604	658.11108	27.68220	698.17554	-918.99200	
2648	26.470	-682.32129	40.72416	-562.41089	732.54681	43.33313	-477.98123	-753.05835	-42.25362	654.11212	816.41064	-36.05394	657.78680	26.83233	696.96918	-920.28864	
2649	26.480	-683.26929	39.97023	-562.66083	731.80078	42.74178	-478.34149	-753.83032	-41.31492	653.87775	815.58344	-35.19551	657.70874	25.82947	695.52216	-921.49310	
2650	26.490	-684.24774	39.11901	-562.88007	730.44348	42.06024	-478.46185	-754.97894	-40.15619	653.89270	814.30151	-34.26382	657.53040	24.69671	694.24188	-922.87903	
2651	26.500	-685.22382	37.97551	-563.18347	729.47705	41.47464	-478.98618	-755.96765	-39.55235	653.71814	813.16687	-33.48134	657.40417	23.57912	692.82990	-924.44824	
2652	26.510	-686.47156	37.35596	-563.49219	728.33459	40.72300	-479.09415	-757.22894	-38.48664	653.40332	812.34558	-32.27528	657.44073	22.71129	691.39313	-925.73157	
2653	26.520	-687.63086	36.61460	-563.73743	727.28656	39.66269	-479.37744	-758.20593	-37.64400	653.25421	811.10132	-31.35866	657.08044	21.92147	690.23865	-927.35736	
2654	26.530	-688.52747	35.56739	-564.12024	726.33636	39.05585	-479.53445	-759.38037	-36.58099	653.09766	810.05603	-30.19023	657.07471	21.61385	689.12598	-929.44110	
2655	26.540	-689.50452	34.49547	-564.26251	725.12048	38.10582	-479.93179	-760.33948	-35.67181	652.81659	808.73804	-29.54912	656.72046	20.80973	687.00128	-930.64441	
2656	26.550	-690.89929	33.60139	-564.53351	723.86383	37.75951	-480.45740	-761.43884	-34.67736	652.66571	807.79871	-28.67813	656.44244	17.75566	685.78247	-930.66162	
2657	26.560	-692.09583	32.92542	-564.95282	723.04333	36.51733	-480.43079	-762.81995	-33.60576	652.49719	806.80750	-27.59680	656.20111	18.05158	683.82391	-932.84906	
2658	26.570	-692.89783	31.55639	-565.30780	721.77869	35.58076	-480.88492	-763.67596	-32.46011	652.17029	805.59143	-26.65599	656.23346	16.30745	682.23792	-933.50464	
2659	26.580	-694.10846	30.58386	-565.59943	720.40057	34.68196	-481.27393	-764.90698	-31.36523	651.89771	804.40668	-25.25106	655.99762	15.40906	680.57788	-934.55090	
2660	26.590	-695.42798	29.93746	-565.95953	719.77374	33.89195	-481.71033	-765.79724	-30.15534	651.73242	803.35968	-23.95821	655.75885	14.10478	678.85638	-935.99365	
2661	26.600	-696.49493	28.43884	-566.27985	718.07214	32.97948	-482.08829	-767.01154	-29.22680	651.50806	802.28827	-23.12394	655.73035	12.89017	677.22632	-937.55286	
2662	26.610	-697.48505	27.46225	-566.59015	717.53101	31.99289	-482.16748	-768.32300	-28.24163	651.32599	801.04742	-22.06359	655.14172	11.33406	675.57532	-939.18536	
2663	26.620	-698.67810	26.55094	-567.05853	716.42883	30.95908	-482.28488	-769.18835	-26.99267	651.09338	799.79065	-20.73877	655.12738	10.54848	673.75452	-940.90167	
2664	26.630	-699.84692	25.40759	-567.32397	715.07953	30.21235	-483.11624	-770.39740	-25.85130	650.88104	798.68420	-19.49185	654.96777	9.59965	671.87506	-942.56134	
2665	26.640	-701.07904	24.14976	-567.55981	713.84570	28.98311	-483.24265	-771.65009	-24.53841	650.65997	797.56586	-18.35757	654.69312	8.39759	670.06403	-944.46240	
2666	26.650	-701.99652	23.12733	-568.12646	712.81476	28.23401	-483.70361	-772.78125	-23.35480	650.36688	796.34814	-17.36954	654.09424	7.23843	668.14642	-946.17517	
2667	26.660	-703.08740	21.84372	-568.46716	711.45026	27.20400	-483.85046	-774.11035	-22.15908	650.08484	795.17047	-16.46356	653.97864	6.34324	666.14368	-947.90143	
2668	26.670	-704.33502	20.72969	-568.65649	710.78113	26.25513	-484.10635	-775.14838	-21.03900	649.97241	793.96002	-14.81024	653.96265	4.84305	664.42017	-949.41284	
2669	26.680	-705.65533	19.73480	-569.12213	709.05914	25.26392	-484.90332	-776.17340	-19.77699	649.44598	792.88580	-13.55663	653.67078	3.93641	662.64935	-950.84198	
2670	26.690	-706.43066	18.37301	-569.33276	708.32922	24.26559	-485.01306	-777.15338	-18.62980	649.21210	791.97778	-12.15166	653.43738	3.61935	660.55157	-952.23547	
2671	26.700	-707.35144	17.12337	-569.98328	707.28229	22.98761	-485.25043	-778.56262	-17.20917	648.95300	790.56903	-11.07806	653.01825	1.48827	658.78473	-953.69336	
2672	26.710	-708.81726	16.03613	-570.24133	705.97070	21.99367	-485.72284	-779.47351	-16.13969	648.71533	789.47247	-10.16778	652.42828	0.55623	656.77118	-955.43512	
2673	26.720	-709.86713	14.62916	-570.48926	704.80359	21.08379	-486.04083	-780.89453	-14.77047	648.45508	788.34619	-8.57595	652.37958	-0.67858	654.70227	-956.84735	
2674	26.730	-710.91394	13.58339	-570.85712	703.79327	19.83525	-486.26801	-781.89618	-13.46705	648.04749	787.16107	-7.24072	652.27191	-1.92337	652.62817	-958.19580	
2675	26.740	-712.15430	12.41390	-571.32770	702.63202	18.92870	-486.74875	-783.03381	-12.33426	647.73688	786.03784	-5.93120	651.92389	-2.48300	650.60596	-959.98083	
2676	26.750	-713.36975	11.19576	-571.52069	701.54834	17.72993	-487.08795	-784.15552	-11.14273	647.46619	785.00708	-4.74828	651.66309	-4.01877	648.58679	-961.81769	
2677	26.760	-714.38605	9.92531	-571.86761	700.43091	16.95490	-487.44067	-785.40881	-9.73783	647.05542	783.98328	-3.40369	651.42700	-4.94462	646.46356	-963.63135	
2678	26.770	-715.10089	8.41325	-572.19250	699.18738	15.63794	-487.86456	-786.38837	-8.56460	646.81018	783.07245	-2.22214	650.95441	-5.92448	644.42926	-965.37616	
2679	26.780	-716.39313	7.49666	-572.70520	698.59363	14.60513	-487.94009	-787.56360	-6.95592	646.50073	781.67688	-0.83651	650.81561	-7.05459	642.43616	-967.43329	
2680	26.790	-717.56738	6.28468	-572.96442	696.83124	13.74329	-488.61731	-788.54889	-5.58303	646.13660	780.44232	0.49653	650.26318	-8.39172	640.27283	-969.17920	
2681	26.800	-718.67004	4.89142	-573.34589	696.22583	12.46449	-488.55530	-789.63330	-4.46984	645.84412	779.46680	1.84985	650.13019	-9.04148	638.07141	-970.74225	
2682	26.810	-719.63251	3.75729	-573.80200	695.09631	11.28791	-488.98532	-790.73230	-2.99380	645.57782	778.29388	3.18854	649.57239	-10.48125	635.95117	-972.42859	
2683	26.820	-720.62427	2.21023	-573.83881	693.87012	10.11377	-489.57214	-791.72504	-1.93267	645.23676	777.18048	3.87778	649.20428	-11.33207	633.85059	-974.12671	
2684	26.830	-721.83728	1.28839	-574.34351	692.85913	9.15330	-489.86224	-792.96643	-0.46267	644.89612	776.23785	5.62216	649.06189	-12.44113	631.71661	-975.63098	
2685	26.840	-723.03638	-0.09832	-574.74615	691.75098	8.09223	-490.31482	-794.11444	1.00239	644.57404	775.18597	6.85332	648.78644	-13.34346	629.67499	-977.30292	
2686	26.850	-723.88959	-1.39712	-574.96710	690.94281	6.87003	-490.30533	-795.03107	1.95292	644.07458	774.16766	8.26466	648.41388	-13.39121	627.31726	-979.28552	
2687	26.860	-724.95911	-2.56452	-575.33978	689.55341	5.88732	-490.95386	-796.10565	3.48507	643.85046	773.00684	9.46597	648.15381	-14.81736	625.18542	-980.52563	
2688	26.870	-725.83691	-4.11361	-575.65131	688.77722	4.75466	-491.21310	-797.09100	4.80905	643.44904	772.36664	10.99961	647.70007	-15.68527	622.96521	-981.79559	
2689	26.880	-727.13794	-5.00637	-575.91455	687.71619	3.56489	-491.49756	-798.10181	5.98490	643.15778	771.03430	12.22668	647.62897	-17.58786	621.06866	-983.68231	
2690	26.890	-727.99768	-6.32457	-576.32520	686.70142	2.47948	-492.00052	-799.21875	7.48513	642.89417	770.17047	13.55260	647.07288	-18.60394	618.88678	-985.28705	
2691	26.900	-728.81537	-7.72016	-576.76349	685.83777	1.44950	-492.10614	-800.09918	8.61075	642.46198	769.41052	15.16357	646.94006	-19.61212	616.85010	-987.02057	
2692	26.910	-729.87036	-8.93847	-576.93182	684.67114	0.37389	-492.55597	-801.03143	9.91645	642.12360	768.34558	15.69973	645.91815	-20.32873	614.75848	-988.75299	
2693	26.920	-730.90631	-10.29451	-577.19397	683.87506	-0.67230	-492.78622	-801.87744	11.34507	641.81903	767.35797	16.88624	645.75177	-20.96965	612.57874	-990.21252	
2694	26.930	-731.86005	-11.18133	-577.61493	683.03998	-1.94384	-492.89612	-802.97339	12.47425	641.45697	766.03461	18.50439	645.71649	-22.28415	610.43158	-992.21881	
2695	26.940	-732.84711	-12.52041	-577.81824	682.22540	-2.85705	-493.39420	-803.88458	13.78359	641.09271	765.40442	20.06905	645.38721	-23.12465	608.30054	-993.94922	
2696	26.950	-733.60596	-13.67771	-578.30865	680.92065	-3.98727	-493.77600	-804.83606	15.09607	640.64331	764.30762	21.26663	644.94720	-24.23462	606.24927	-995.46381	
2697	26.960	-734.56067	-15.06879	-578.41254	680.30890	-5.04149	-494.00931	-805.95837	16.24688	640.35986	763.39063	22.22313	644.35461	-24.54633	603.95258	-996.69562	
2698	26.970	-735.25415	-16.54507	-578.61664	679.58276	-6.23053	-494.15469	-806.54865	17.43762	639.94733	762.73340	23.75697	644.41827	-25.81770	602.09729	-998.34589	
